# xmcd
#
# Track frame offsets: 
#        150
#        18246
#        33830
#        47034
#        64584
#        85357
#        105391
#        125774
#        144532
#        154734
#        164309
#        178891
#
# Disc length: 2482 seconds
#
# Revision: 0
# Processed by: cddbd v1.5.2PL0 Copyright (c) Steve Scherf et al.
# Submitted via: ExactAudioCopy v0.99pb5
#
DISCID=9a09b00c
DTITLE=Kid Koala - 12 Bit Blues
DYEAR=2012
DGENRE=Blues
TTITLE0=1 Bit Blues (10.000 Miles)
TTITLE1=2 Bit Blues
TTITLE2=3 Bit Blues
TTITLE3=4 Bit Blues
TTITLE4=5 Bit Blues
TTITLE5=6 Bit Blues
TTITLE6=7 Bit Blues
TTITLE7=8 Bit Blues (Chicago To NY To LA)
TTITLE8=9 Bit Blues
TTITLE9=10 Bit Blues
TTITLE10=11 Bit Blues
TTITLE11=Denouement
EXTD=
EXTT0=
EXTT1=
EXTT2=
EXTT3=
EXTT4=
EXTT5=
EXTT6=
EXTT7=
EXTT8=
EXTT9=
EXTT10=
EXTT11=
PLAYORDER=
